:SAMPLES-PER-SECOND 30
:FULLY-SPECIFIED
:DEGREES
48
root  -15.9867 39.5913 -1.12263 147.822 -83.075 -153.424
RightUpLeg  -0.00786084 -16.0918 -0.370348
RightLeg  23.7075 0.639947 0.453225
RightFoot  -15.2503 -0.128187 -0.713334
RightToes  0.000482159 0.542163 -0.142577
Spine  15.9646 -0.945992 13.1046
Spine1  13.6008 1.35239 -1.72028
HEad  5.11677 3.41234 -2.47952
LeftShoulder1  7.68022 -12.4578 -41.7554
LeftArm  -21.7855 13.0938 -29.8557
LeftForeArm  49.5195 -53.6131 -11.2049
LeftHand  -0.25398 0.0180481 5.50724
RightShoulder  4.47703 8.62674 30.9575
RightArm  -4.68918 20.8074 34.265
RightForeArm  -0.153624 31.4129 6.90743
RightHand  -1.21323 2.21057 -18.6328
LeftUpLeg  -25.1544 20.3824 1.59241
LeftLeg  29.1529 3.67843 2.85515
LeftFoot  -0.008615 0.415784 -4.19741
LeftToes  1.06246e-005 4.65854e-005 -8.18503e-006
49
root  -17.2234 39.5747 -1.13278 149.352 -82.3962 -154.847
RightUpLeg  2.35841 -15.1713 -0.705665
RightLeg  22.839 0.401939 0.277821
RightFoot  -16.3066 -0.14286 -0.756338
RightToes  0.000482159 0.542163 -0.142577
Spine  15.8746 -0.882401 13.1538
Spine1  14.0581 1.67334 -2.65824
HEad  4.66393 3.72278 -2.17795
LeftShoulder1  7.92116 -12.7073 -42.4502
LeftArm  -22.3464 14.424 -29.2768
LeftForeArm  48.7409 -51.7036 -10.3924
LeftHand  -0.25398 0.0180481 5.50724
RightShoulder  4.50646 8.70074 30.9749
RightArm  -2.71602 22.5343 35.5822
RightForeArm  0.727623 31.8692 6.97751
RightHand  -1.1949 2.17138 -18.4497
LeftUpLeg  -23.3429 19.2418 2.32568
LeftLeg  15.046 5.75859 0.645392
LeftFoot  1.63687 0.441505 -3.96178
LeftToes  1.06246e-005 4.65854e-005 -8.18503e-006
50
root  -18.5188 39.438 -1.11657 150.11 -81.4684 -155.992
RightUpLeg  5.13694 -13.6175 -0.964193
RightLeg  22.373 -0.0215634 -0.0566637
RightFoot  -17.8895 -0.106954 0.207077
RightToes  0.000482159 0.542163 -0.142577
Spine  16.2646 -0.8478 12.9649
Spine1  14.7312 1.97381 -3.28877
HEad  4.00167 4.17307 -1.72093
LeftShoulder1  8.12472 -12.9137 -43.0302
LeftArm  -23.331 16.3878 -28.9235
LeftForeArm  47.6658 -51.4837 -10.3804
LeftHand  -0.25398 0.0180481 5.50724
RightShoulder  4.59364 8.83928 31.2692
RightArm  -0.396694 23.9449 36.7543
RightForeArm  0.939301 31.9099 6.97646
RightHand  -1.26371 2.46178 -18.7934
LeftUpLeg  -19.3964 9.60802 7.77287
LeftLeg  1.66904 16.6145 -4.16949
LeftFoot  2.96546 0.546749 -4.50908
LeftToes  1.06246e-005 4.65854e-005 -8.18503e-006
51
root  -19.9381 39.1314 -1.03538 148.889 -80.4838 -155.383
RightUpLeg  7.79224 -12.0041 -1.14879
RightLeg  23.1052 -0.364694 -0.37091
RightFoot  -19.8822 -0.00402374 1.76256
RightToes  0.000482159 0.542163 -0.142577
Spine  16.5593 -0.864457 13.0256
Spine1  15.4063 2.11801 -3.63431
HEad  3.30349 4.51578 -0.974981
LeftShoulder1  8.21224 -12.971 -43.3613
LeftArm  -24.444 18.5258 -28.868
LeftForeArm  45.4761 -52.7423 -11.1085
LeftHand  -0.25398 0.0180481 5.50724
RightShoulder  4.74235 9.07173 31.7673
RightArm  1.9627 24.7743 37.781
RightForeArm  0.989833 31.5437 6.87861
RightHand  -1.32879 2.72834 -19.1185
LeftUpLeg  -17.5968 7.71587 9.23945
LeftLeg  -5.55277 20.2978 -6.52322
LeftFoot  2.11497 0.656397 -5.64697
LeftToes  1.06246e-005 4.65854e-005 -8.18503e-006
52
root  -21.4097 38.8041 -0.905164 147.472 -80.2779 -154.142
RightUpLeg  9.87011 -10.858 -1.5931
RightLeg  24.3094 -1.00616 -0.732012
RightFoot  -21.5669 0.104176 2.8027
RightToes  0.000482159 0.542163 -0.142577
Spine  16.4913 -1.01137 12.6596
Spine1  16.1604 2.03964 -3.80677
HEad  2.89004 4.50237 -0.156902
LeftShoulder1  8.21138 -12.9122 -43.5206
LeftArm  -25.46 20.0902 -29.0954
LeftForeArm  42.7044 -54.5056 -12.1831
LeftHand  -0.25398 0.0180481 5.50724
RightShoulder  4.91707 9.31417 32.4196
RightArm  3.77413 24.6805 38.5433
RightForeArm  1.43927 30.9581 6.70328
RightHand  -1.3099 2.67116 -18.9812
LeftUpLeg  -17.5931 8.00433 8.9264
LeftLeg  -5.68201 22.5327 -7.04752
LeftFoot  1.90695 0.544974 -4.83429
LeftToes  1.06246e-005 4.65854e-005 -8.18503e-006
53
root  -22.8703 38.4989 -0.76491 147.865 -80.904 -154.328
RightUpLeg  11.3015 -9.93049 -2.57619
RightLeg  26.0249 -1.69683 -1.13554
RightFoot  -22.8775 0.328725 4.72682
RightToes  0.000482159 0.542163 -0.142577
Spine  16.5974 -0.950101 11.2484
Spine1  16.627 1.8836 -3.43898
HEad  2.7928 3.91481 0.562959
LeftShoulder1  8.26877 -12.8895 -43.9056
LeftArm  -26.0562 20.3033 -29.2789
LeftForeArm  40.7836 -55.7885 -13.0291
LeftHand  -0.25398 0.0180481 5.50724
RightShoulder  5.11565 9.47719 33.465
RightArm  4.9113 23.6096 38.5256
RightForeArm  1.57137 30.2902 6.52667
RightHand  -1.31786 2.70658 -19.009
LeftUpLeg  -18.5122 8.12276 7.65961
LeftLeg  -2.4312 23.2443 -6.39359
LeftFoot  6.49358 0.084633 -0.919906
LeftToes  1.06246e-005 4.65854e-005 -8.18503e-006
